HIERARCHY
ROOT Hips
{
 OFFSET 0.000000 0.000000 0.000000
 CHANNELS 6 Xposition Yposition Zposition Yrotation Xrotation Zrotation
 JOINT Chest
 {
  OFFSET 0.000000 9.588913 -0.003946
  CHANNELS 3 Yrotation Xrotation Zrotation
  JOINT Chest2
  {
   OFFSET 0.000000 9.541882 0.008053
   CHANNELS 3 Yrotation Xrotation Zrotation
   JOINT Chest3
   {
    OFFSET 0.000000 9.501360 0.000000
    CHANNELS 3 Yrotation Xrotation Zrotation
    JOINT Chest4
    {
     OFFSET 0.000000 9.491660 0.000000
     CHANNELS 3 Yrotation Xrotation Zrotation
     JOINT Neck
     {
      OFFSET 0.000000 14.331917 0.000000
      CHANNELS 3 Yrotation Xrotation Zrotation
      JOINT Head
      {
       OFFSET 0.000000 8.884799 0.017034
       CHANNELS 3 Yrotation Xrotation Zrotation
       End Site
       {
        OFFSET 0.000000 16.896195 0.008993
       }
      }
     }
     JOINT RightCollar
     {
      OFFSET -2.923010 9.499495 0.000000
      CHANNELS 3 Yrotation Xrotation Zrotation
      JOINT RightShoulder
      {
       OFFSET -13.795216 0.000000 0.000000
       CHANNELS 3 Yrotation Xrotation Zrotation
       JOINT RightElbow
       {
        OFFSET -30.272209 0.000000 0.000000
        CHANNELS 3 Yrotation Xrotation Zrotation
        JOINT RightWrist
        {
         OFFSET -24.478199 0.000000 0.000000
         CHANNELS 3 Yrotation Xrotation Zrotation
         End Site
         {
          OFFSET -18.090752 0.000000 0.000000
         }
        }
       }
      }
     }
     JOINT LeftCollar
     {
      OFFSET 2.923010 9.499495 0.000000
      CHANNELS 3 Yrotation Xrotation Zrotation
      JOINT LeftShoulder
      {
       OFFSET 13.795216 0.000000 0.000000
       CHANNELS 3 Yrotation Xrotation Zrotation
       JOINT LeftElbow
       {
        OFFSET 30.272209 0.000000 0.000000
        CHANNELS 3 Yrotation Xrotation Zrotation
        JOINT LeftWrist
        {
         OFFSET 24.478199 0.000000 0.000000
         CHANNELS 3 Yrotation Xrotation Zrotation
         End Site
         {
          OFFSET 18.090752 0.000000 0.000000
         }
        }
       }
      }
     }
    }
   }
  }
 }
 JOINT RightHip
 {
  OFFSET -7.826875 0.019532 0.001973
  CHANNELS 3 Yrotation Xrotation Zrotation
  JOINT RightKnee
  {
   OFFSET 0.000000 -40.546152 -0.001885
   CHANNELS 3 Yrotation Xrotation Zrotation
   JOINT RightAnkle
   {
    OFFSET 0.000000 -39.417092 -0.003189
    CHANNELS 3 Yrotation Xrotation Zrotation
    JOINT RightToe
    {
     OFFSET 0.000000 -7.579396 17.243563
     CHANNELS 3 Yrotation Xrotation Zrotation
     End Site
     {
      OFFSET 0.000000 -1.500329 6.694466
     }
    }
   }
  }
 }
 JOINT LeftHip
 {
  OFFSET 7.826875 0.019532 0.001973
  CHANNELS 3 Yrotation Xrotation Zrotation
  JOINT LeftKnee
  {
   OFFSET 0.000000 -40.546152 -0.001885
   CHANNELS 3 Yrotation Xrotation Zrotation
   JOINT LeftAnkle
   {
    OFFSET 0.000000 -39.417092 -0.003189
    CHANNELS 3 Yrotation Xrotation Zrotation
    JOINT LeftToe
    {
     OFFSET 0.000000 -7.579396 17.243563
     CHANNELS 3 Yrotation Xrotation Zrotation
     End Site
     {
      OFFSET 0.000000 -1.500329 6.694466
     }
    }
   }
  }
 }
}
MOTION
Frames: 11
Frame Time: 0.008333
-46.560227 91.155480 50.817895 -54.943832 -11.954772 0.510111 7.889059 3.929080 2.038311 4.539532 2.279783 0.822857 5.680612 2.838963 1.056823 4.539534 2.279783 0.822857 -2.603962 0.953214 -3.935418 -2.031065 -25.389311 -4.008771 -12.038640 -0.568972 -0.085281 4.563057 -4.839110 89.166806 -1.660575 -3.334833 0.022010 2.782465 -10.684191 -3.656355 -18.526454 -1.364921 -0.852770 3.276744 -3.704001 -90.599945 0.347339 2.376607 0.141206 -2.215154 -4.515707 6.315899 13.081025 15.503347 -2.170044 9.367710 12.193303 1.398449 -3.911331 -0.655315 6.983150 0.354597 -15.610737 -3.339526 11.718958 11.194140 8.017159 7.489414 16.892622 4.101315 -0.604354 -1.971821 -3.744467 0.440868 -9.082005 -5.331966
-46.666974 91.253688 50.887730 -54.936132 -11.983468 0.526151 7.884973 3.900222 2.030720 4.537728 2.257309 0.816169 5.678243 2.810964 1.048169 4.537729 2.257309 0.816170 -2.613859 0.986820 -3.939906 -2.041278 -25.348631 -4.009938 -12.108852 -0.540839 -0.133676 4.589899 -4.855448 89.218105 -1.590820 -3.294055 0.050355 2.776945 -10.669399 -3.664175 -18.497895 -1.344440 -0.821485 3.302403 -3.694864 -90.610852 0.216297 2.380267 -0.034232 -2.179079 -4.513563 6.229188 13.049691 15.514458 -2.177469 9.340527 12.252747 1.373669 -3.830280 -0.162150 7.165035 0.389328 -16.161933 -3.510098 11.767818 11.252816 8.045770 7.517526 16.819872 4.100439 -0.694862 -1.421858 -3.710447 0.513238 -9.838095 -5.578165
-46.766246 91.346651 50.948204 -54.923207 -11.991862 0.538230 7.880901 3.866430 2.022906 4.535725 2.232584 0.808868 5.675617 2.780160 1.038719 4.535727 2.232584 0.808868 -2.625465 1.015056 -3.945375 -2.053352 -25.314546 -4.012076 -12.178066 -0.513774 -0.181485 4.627795 -4.861850 89.269472 -1.513337 -3.268700 0.078240 2.772665 -10.663604 -3.671953 -18.468522 -1.320372 -0.784381 3.331058 -3.683257 -90.628885 0.075047 2.374951 -0.214452 -2.162996 -4.527742 6.159397 13.039726 15.500710 -2.178906 9.316453 12.311867 1.352728 -3.768067 0.315519 7.339148 0.423208 -16.689191 -3.672972 11.800439 11.276280 8.069609 7.530441 16.767227 4.104501 -0.771917 -0.891512 -3.685376 0.586946 -10.583718 -5.787375
-46.859089 91.433916 50.999754 -54.913538 -11.988318 0.545247 7.879725 3.831877 2.016120 4.535140 2.207444 0.801868 5.674764 2.748830 1.029649 4.535142 2.207444 0.801868 -2.639482 1.036816 -3.951598 -2.068215 -25.288400 -4.014768 -12.243718 -0.487854 -0.228542 4.663600 -4.859137 89.324300 -1.424467 -3.249945 0.102689 2.769392 -10.664599 -3.683925 -18.439885 -1.296190 -0.745099 3.356819 -3.670021 -90.649463 -0.073943 2.351573 -0.397304 -2.163839 -4.556957 6.108358 13.056862 15.469256 -2.170891 9.294341 12.371710 1.336237 -3.719672 0.775139 7.502272 0.455911 -17.191524 -3.826315 11.818437 11.269621 8.090208 7.531848 16.745990 4.116281 -0.829618 -0.387860 -3.670422 0.656540 -11.316170 -5.966166
-46.946273 91.515152 51.043336 -54.909426 -11.980791 0.547133 7.880005 3.799067 2.011016 4.536152 2.184160 0.796444 5.675925 2.719796 1.022583 4.536153 2.184160 0.796444 -2.653616 1.050860 -3.960134 -2.082692 -25.271687 -4.020592 -12.302669 -0.464938 -0.276489 4.690058 -4.849320 89.380950 -1.323872 -3.239600 0.123874 2.763874 -10.664372 -3.697574 -18.411014 -1.274978 -0.707834 3.378617 -3.652602 -90.670618 -0.229091 2.307361 -0.583917 -2.184841 -4.600327 6.082257 13.091761 15.427910 -2.156133 9.269930 12.432779 1.325472 -3.673199 1.214399 7.654259 0.487835 -17.668189 -3.971926 11.823907 11.237609 8.111241 7.522992 16.764552 4.132818 -0.867322 0.085114 -3.664041 0.718449 -12.034858 -6.118836
-47.028248 91.590104 51.080059 -54.905300 -11.974928 0.543079 7.879269 3.769209 2.007364 4.538089 2.164407 0.793512 5.678267 2.695141 1.018680 4.538090 2.164407 0.793512 -2.667199 1.056150 -3.971496 -2.095856 -25.265662 -4.030401 -12.356337 -0.445298 -0.323590 4.701041 -4.835871 89.434947 -1.218352 -3.231195 0.145464 2.763837 -10.663520 -3.711743 -18.382790 -1.257390 -0.672705 3.395028 -3.631995 -90.692671 -0.388272 2.246351 -0.773134 -2.222678 -4.659484 6.079867 13.124100 15.383438 -2.138161 9.238669 12.494904 1.318327 -3.615999 1.631393 7.797706 0.519925 -18.118719 -4.112747 11.819735 11.184333 8.139659 7.503439 16.823380 4.148583 -0.897171 0.528075 -3.663145 0.776979 -12.739460 -6.249475
-47.104961 91.658572 51.111108 -54.895567 -11.972677 0.533686 7.877243 3.743291 2.005219 4.540238 2.148207 0.792782 5.680899 2.674899 1.017578 4.540238 2.148207 0.792782 -2.682257 1.052802 -3.985219 -2.110282 -25.270205 -4.043073 -12.406517 -0.427408 -0.368958 4.693513 -4.823967 89.487424 -1.116660 -3.218720 0.167996 2.773456 -10.659778 -3.726837 -18.357445 -1.243098 -0.637939 3.405903 -3.611261 -90.716438 -0.547197 2.170038 -0.960884 -2.270297 -4.727680 6.090128 13.140326 15.339154 -2.120875 9.203286 12.558274 1.314620 -3.546622 2.023739 7.934284 0.552251 -18.542459 -4.250123 11.812860 11.112944 8.180822 7.477966 16.917105 4.158666 -0.936473 0.941796 -3.664082 0.837589 -13.426081 -6.361327
-47.176000 91.720472 51.137778 -54.877984 -11.973438 0.521707 7.874558 3.722780 2.004938 4.541677 2.135027 0.793236 5.682660 2.658419 1.017987 4.541677 2.135028 0.793236 -2.699841 1.041462 -4.001311 -2.127228 -25.284546 -4.058302 -12.450025 -0.411021 -0.413117 4.666387 -4.818353 89.540414 -1.023390 -3.203837 0.188268 2.788524 -10.653084 -3.737410 -18.335614 -1.233049 -0.604844 3.413786 -3.592244 -90.741921 -0.701635 2.080246 -1.144460 -2.325730 -4.797899 6.105977 13.139577 15.296378 -2.108124 9.172915 12.622502 1.316319 -3.473512 2.388956 8.064642 0.584004 -18.938473 -4.383962 11.813513 11.027753 8.232989 7.454673 17.034967 4.163413 -0.994217 1.325254 -3.661993 0.900268 -14.089251 -6.458973
-47.241107 91.775924 51.161252 -54.854914 -11.976457 0.509845 7.873023 3.709515 2.006318 4.542250 2.124710 0.793905 5.683349 2.645516 1.018697 4.542250 2.124710 0.793905 -2.719103 1.021757 -4.019851 -2.145663 -25.309138 -4.076439 -12.487048 -0.396212 -0.453544 4.626623 -4.818019 89.589532 -0.936877 -3.186428 0.209723 2.807663 -10.655845 -3.745422 -18.314610 -1.228363 -0.574601 3.417659 -3.577400 -90.767531 -0.849053 1.982315 -1.322632 -2.384294 -4.871564 6.126007 13.129873 15.257236 -2.100025 9.154757 12.684741 1.321960 -3.406100 2.726258 8.190938 0.614303 -19.305738 -4.513990 11.828594 10.936657 8.291073 7.436535 17.162013 4.164722 -1.066198 1.678891 -3.654978 0.963045 -14.724457 -6.546034
-47.300018 91.825261 51.182720 -54.828358 -11.981186 0.501313 7.872871 3.702958 2.007033 4.542399 2.117371 0.794502 5.683516 2.636335 1.019351 4.542399 2.117371 0.794502 -2.738863 0.993174 -4.040858 -2.164170 -25.344598 -4.097863 -12.521708 -0.383370 -0.489552 4.595486 -4.816822 89.627552 -0.849815 -3.176960 0.238223 2.825300 -10.668633 -3.754960 -18.295661 -1.229094 -0.548500 3.422204 -3.567941 -90.790482 -0.987879 1.886366 -1.494347 -2.441440 -4.947159 6.148126 13.120096 15.224943 -2.097146 9.149939 12.740683 1.330030 -3.350542 3.035765 8.314960 0.642705 -19.643220 -4.640121 11.852820 10.849011 8.347122 7.426296 17.282885 4.163661 -1.142751 2.007749 -3.643006 1.023811 -15.328552 -6.624921
-47.352502 91.869026 51.203437 -54.798424 -11.988221 0.500057 7.873706 3.701910 2.005009 4.542592 2.113258 0.795110 5.683747 2.631187 1.020061 4.542592 2.113258 0.795110 -2.758924 0.955739 -4.064773 -2.182390 -25.390916 -4.123174 -12.555145 -0.373069 -0.522996 4.586675 -4.811273 89.650873 -0.761219 -3.187842 0.271916 2.837005 -10.678938 -3.762847 -18.284514 -1.233924 -0.532421 3.433425 -3.563136 -90.805988 -1.119237 1.801071 -1.658570 -2.495878 -5.017846 6.167416 13.114902 15.204383 -2.102720 9.153405 12.785484 1.341117 -3.307823 3.317250 8.434969 0.669669 -19.949245 -4.761040 11.875375 10.772076 8.390699 7.427180 17.389173 4.164079 -1.214514 2.316437 -3.626340 1.079840 -15.900267 -6.698459
